<?xml version="1.0" encoding="UTF-8" standalone="no"?>
<svg
   xmlns:dc="http://purl.org/dc/elements/1.1/"
   xmlns:cc="http://creativecommons.org/ns#"
   xmlns:rdf="http://www.w3.org/1999/02/22-rdf-syntax-ns#"
   xmlns:svg="http://www.w3.org/2000/svg"
   xmlns="http://www.w3.org/2000/svg"
   viewBox="0 0 1280 746.66669"
   height="746.66669"
   width="1280"
   xml:space="preserve"
   id="svg2"
   version="1.1"><metadata
     id="metadata8"><rdf:RDF><cc:Work
         rdf:about=""><dc:format>image/svg+xml</dc:format><dc:type
           rdf:resource="http://purl.org/dc/dcmitype/StillImage" /></cc:Work></rdf:RDF></metadata><defs
     id="defs6"><clipPath
       id="clipPath22"
       clipPathUnits="userSpaceOnUse"><path
         id="path20"
         d="M 0,560 H 960 V 0 H 0 Z" /></clipPath></defs><g
     transform="matrix(1.3333333,0,0,-1.3333333,0,746.66667)"
     id="g10"><g
       transform="translate(960.0003,559.9998)"
       id="g12"><path
         id="path14"
         style="fill:#000000;fill-opacity:1;fill-rule:nonzero;stroke:none"
         d="M 0,0 -960,-0.182 V -560 H 0 Z" /></g><g
       id="g16"><g
         clip-path="url(#clipPath22)"
         id="g18"><g
           transform="translate(769.9922,367.0001)"
           id="g24"><path
             id="path26"
             style="fill:#00a2ea;fill-opacity:1;fill-rule:nonzero;stroke:none"
             d="m 0,0 c -2.675,10.446 -7.946,20.994 -14.49,28.103 -5.02,5.454 -10.43,10.121 -16.313,13.968 -3.548,2.321 -14.589,7.867 -14.589,7.867 l 5.197,-9.77 4.14,-8.547 c -4.152,3.508 -8.36,6.953 -12.607,10.345 -3.999,3.193 -7.681,6.848 -12.062,9.537 -7.514,4.612 -16.568,5.593 -25.152,6.46 -14.944,1.509 -30.061,1.659 -44.766,-1.674 -14.083,-3.192 -27.529,-8.751 -40.334,-15.352 -19.083,-9.861 -36.568,-23.218 -44.994,-43.6 -0.68,-1.645 -1.305,-3.312 -1.88,-4.996 -6.817,-19.949 -7.616,-42.3 -2.356,-62.709 0.555,-2.152 1.181,-4.285 1.884,-6.394 3.834,-11.501 9.154,-25.9 16.642,-35.494 9.898,-3.328 163.314,-25.263 192.828,-29.554 0.291,8.17 3.039,21.732 3.039,21.732 -0.3,-4.283 1.545,-16.225 2.597,-22.552 1.707,-0.242 3.418,-0.457 5.132,-0.643 V -49.9 C 1.916,-33.726 4.154,-15.784 0,0" /></g><g
           transform="translate(724.3921,318.2866)"
           id="g28"><path
             id="path30"
             style="fill:#ffffff;fill-opacity:1;fill-rule:nonzero;stroke:none"
             d="M 0,0 -24.2,-10.453 -3.26,3.404 c 0,0 17.666,-3.764 20.005,-3.411 2.338,0.354 3.538,-0.552 3.538,-0.552 0,0 -1.061,-7.047 -20.283,0.559 m 10.101,-17.239 c -10.727,-1.787 -19.246,6.731 -19.246,6.731 7.467,7.467 22.611,5.679 22.611,5.679 3.26,-9.044 -3.365,-12.41 -3.365,-12.41 m -22.643,-13.985 c -1.035,0 -1.875,0.84 -1.875,1.875 0,1.036 0.84,1.875 1.875,1.875 1.036,0 1.875,-0.839 1.875,-1.875 0,-1.035 -0.839,-1.875 -1.875,-1.875 m 51.515,-4.685 C 23.891,-24.205 22.951,-6.56 23.185,-5.906 c 1.443,4.045 3.569,8.527 6.648,11.742 0.457,2.726 0.584,5.492 0.546,7.874 -0.085,5.418 -2.151,20.243 -2.556,22.275 -0.414,2.071 -2.227,7.097 -2.381,7.337 -0.65,-19.004 -8.836,-24.387 -8.836,-24.387 0,0 -14.196,0.128 -19.374,0.019 -8.754,-0.184 -17.65,-0.538 -26.104,-3.019 -4.273,-1.255 -8.644,-3.809 -10.51,-8.044 -1.918,-4.356 -1.631,-9.37 -1.492,-14.014 0.156,-5.23 0.729,-10.395 1.099,-15.603 0.377,-5.315 9.874,-61.701 9.874,-61.701 l -21.788,3.264 c -3.234,24.973 -7.745,59.479 -9.433,70.831 0,0 0.888,-40.24 4.434,-70.082 l -26.737,4.006 c -1.928,12.288 -12.439,79.953 -12.697,96.576 0,0 -1.605,-73.106 5.264,-95.462 l -15.085,2.26 c 0.038,10.485 0.151,42.954 0.134,50.58 0,0 -3.463,-37.231 -3.251,-50.113 l -3.221,0.482 c 0,0 -0.085,10e-4 -0.085,-0.006 -0.007,-0.364 10.607,-11.093 13.278,-18.045 3.595,-9.354 -3.229,-35.618 -8.416,-44.451 0.271,-0.342 15.321,-12.135 15.321,-12.135 12.681,-12.166 34.319,-30.305 48.758,-40.196 -0.021,0.062 -8.871,23.5 -3.738,42.184 2.791,10.164 14.719,47.636 15.679,48.23 6.168,3.818 27.206,-4.415 31.46,-5.012 3.967,-0.558 7.991,-1.643 11.989,-0.697 4.514,1.067 6.807,4.771 7.141,9.207 0.174,2.31 -1.641,4.252 -2.012,6.488 -0.291,1.747 0.389,4.923 1.587,6.167 0.168,0.117 6.203,4.384 8.218,5.451 1.42,4.886 -2.57,6.556 -2.57,6.556 0,0 3.627,2.424 4.243,3.598 0.717,1.367 0.514,3.032 0.858,4.498 0.078,0.334 -1.557,1.688 -1.818,1.957 -2.283,2.349 -2.437,6.529 -0.053,9.38 0.92,1.099 2.663,1.779 4.217,2.225 8.724,2.501 7.197,9.777 7.197,9.777" /></g><g
           transform="translate(687.4714,162.2524)"
           id="g32"><path
             id="path34"
             style="fill:#00a2ea;fill-opacity:1;fill-rule:nonzero;stroke:none"
             d="m 0,0 h -6.487 l -10.47,18.208 h -0.148 c 0.208,-3.216 0.313,-5.509 0.313,-6.881 V 0 h -4.561 v 24.069 h 6.437 L -4.462,6.042 h 0.116 c -0.165,3.128 -0.247,5.34 -0.247,6.635 V 24.069 H 0 Z" /></g><g
           transform="translate(707.3919,162.2524)"
           id="g36"><path
             id="path38"
             style="fill:#00a2ea;fill-opacity:1;fill-rule:nonzero;stroke:none"
             d="M 0,0 H -13.862 V 24.069 H 0 v -4.181 h -8.758 v -5.285 h 8.149 V 10.421 H -8.758 V 4.215 l 8.758,0 z" /></g><g
           transform="translate(733.7659,162.2524)"
           id="g40"><path
             id="path42"
             style="fill:#00a2ea;fill-opacity:1;fill-rule:nonzero;stroke:none"
             d="m 0,0 h -6.486 l -10.471,18.208 h -0.148 c 0.208,-3.216 0.313,-5.509 0.313,-6.881 V 0 h -4.561 v 24.069 h 6.437 L -4.461,6.042 h 0.115 c -0.165,3.128 -0.247,5.34 -0.247,6.635 V 24.069 H 0 Z" /></g><g
           transform="translate(748.9615,175.7687)"
           id="g44"><path
             id="path46"
             style="fill:#00a2ea;fill-opacity:1;fill-rule:nonzero;stroke:none"
             d="m 0,0 h 9.549 v -12.479 c -1.548,-0.505 -3.005,-0.859 -4.371,-1.062 -1.367,-0.203 -2.763,-0.305 -4.19,-0.305 -3.633,0 -6.407,1.068 -8.322,3.203 -1.916,2.134 -2.873,5.199 -2.873,9.194 0,3.886 1.111,6.915 3.334,9.088 2.222,2.173 5.304,3.26 9.244,3.26 2.469,0 4.851,-0.494 7.145,-1.482 L 7.82,5.334 C 6.064,6.212 4.237,6.651 2.338,6.651 0.132,6.651 -1.635,5.91 -2.963,4.429 -4.291,2.947 -4.955,0.955 -4.955,-1.548 c 0,-2.612 0.535,-4.606 1.605,-5.984 1.07,-1.377 2.626,-2.066 4.667,-2.066 1.065,0 2.146,0.11 3.243,0.329 v 5.022 H 0 Z" /></g><g
           transform="translate(658.2755,172.3908)"
           id="g48"><path
             id="path50"
             style="fill:#00a2ea;fill-opacity:1;fill-rule:nonzero;stroke:none"
             d="m 0,0 h -25.402 v 0.558 l 7.497,7.059 c 4.998,4.572 8.488,8.095 10.468,10.567 1.981,2.473 3.443,4.885 4.387,7.238 0.943,2.353 1.415,4.872 1.415,7.557 0,3.084 -0.771,5.822 -2.312,8.215 -1.543,2.392 -3.709,4.253 -6.501,5.583 -2.791,1.329 -6.008,1.993 -9.65,1.993 -2.765,0 -5.264,-0.272 -7.497,-0.817 -2.233,-0.545 -4.294,-1.323 -6.181,-2.333 -1.888,-1.01 -4.267,-2.738 -7.138,-5.184 l 6.699,-7.935 c 2.313,1.913 4.533,3.389 6.66,4.426 2.126,1.036 4.32,1.555 6.58,1.555 2.153,0 3.874,-0.572 5.164,-1.715 1.289,-1.143 1.934,-2.885 1.934,-5.224 0,-1.568 -0.292,-3.084 -0.878,-4.546 -0.584,-1.462 -1.541,-3.05 -2.871,-4.765 C -18.955,20.517 -21.787,17.44 -26.12,13 L -40.755,-1.794 v -0.043 c 1.548,-1.868 10.205,-8.531 10.205,-8.531 H 0 Z" /></g><g
           transform="translate(128.6475,90.9974)"
           id="g52"><path
             id="path54"
             style="fill:#000000;fill-opacity:1;fill-rule:nonzero;stroke:none"
             d="M 0,0 H 347.573 V 377.024 L 0,374.353 Z" /></g><g
           transform="translate(412.9922,366.0001)"
           id="g56"><path
             id="path58"
             style="fill:#ffffff;fill-opacity:1;fill-rule:nonzero;stroke:none"
             d="m 0,0 c -2.675,10.446 -7.946,20.994 -14.49,28.103 -5.02,5.454 -10.43,10.121 -16.313,13.968 -3.548,2.321 -14.589,7.867 -14.589,7.867 l 5.197,-9.77 4.14,-8.547 c -4.152,3.508 -8.36,6.953 -12.607,10.345 -3.999,3.193 -7.681,6.848 -12.062,9.537 -7.514,4.612 -16.568,5.593 -25.152,6.46 -14.944,1.509 -30.061,1.659 -44.766,-1.674 -14.083,-3.192 -27.529,-8.751 -40.334,-15.352 -19.083,-9.861 -36.568,-23.218 -44.994,-43.6 -0.68,-1.645 -1.305,-3.312 -1.88,-4.996 -6.817,-19.949 -7.616,-42.3 -2.356,-62.709 0.555,-2.152 1.181,-4.285 1.884,-6.394 3.834,-11.501 9.154,-25.9 16.642,-35.494 9.898,-3.328 163.314,-25.263 192.828,-29.554 0.291,8.17 3.039,21.732 3.039,21.732 -0.3,-4.283 1.545,-16.225 2.597,-22.552 1.707,-0.242 3.418,-0.457 5.132,-0.643 V -49.9 C 1.916,-33.726 4.154,-15.784 0,0" /></g><g
           transform="translate(367.3921,317.2866)"
           id="g60"><path
             id="path62"
             style="fill:#00a2ea;fill-opacity:1;fill-rule:nonzero;stroke:none"
             d="M 0,0 -24.2,-10.453 -3.26,3.404 c 0,0 17.666,-3.764 20.005,-3.411 2.338,0.354 3.538,-0.552 3.538,-0.552 0,0 -1.061,-7.047 -20.283,0.559 m 10.101,-17.239 c -10.727,-1.787 -19.246,6.731 -19.246,6.731 7.467,7.467 22.611,5.679 22.611,5.679 3.26,-9.044 -3.365,-12.41 -3.365,-12.41 m -22.643,-13.985 c -1.035,0 -1.875,0.84 -1.875,1.875 0,1.036 0.84,1.875 1.875,1.875 1.036,0 1.875,-0.839 1.875,-1.875 0,-1.035 -0.839,-1.875 -1.875,-1.875 m 51.515,-4.685 C 23.891,-24.205 22.951,-6.56 23.185,-5.906 c 1.443,4.045 3.569,8.527 6.648,11.742 0.457,2.726 0.584,5.492 0.546,7.874 -0.085,5.418 -2.151,20.243 -2.556,22.275 -0.414,2.071 -2.227,7.097 -2.381,7.337 -0.65,-19.004 -8.836,-24.387 -8.836,-24.387 0,0 -14.196,0.128 -19.374,0.019 -8.754,-0.184 -17.65,-0.538 -26.104,-3.019 -4.273,-1.255 -8.644,-3.809 -10.51,-8.044 -1.918,-4.356 -1.631,-9.37 -1.492,-14.014 0.156,-5.23 0.729,-10.395 1.099,-15.603 0.377,-5.315 9.874,-61.701 9.874,-61.701 l -21.788,3.264 c -3.234,24.973 -7.745,59.479 -9.433,70.831 0,0 0.888,-40.24 4.434,-70.082 l -26.737,4.006 c -1.928,12.288 -12.439,79.953 -12.697,96.576 0,0 -1.605,-73.106 5.264,-95.462 l -15.085,2.26 c 0.038,10.485 0.151,42.954 0.134,50.58 0,0 -3.463,-37.231 -3.251,-50.113 l -3.221,0.482 c 0,0 -0.085,10e-4 -0.085,-0.006 -0.007,-0.364 10.607,-11.093 13.278,-18.045 3.595,-9.354 -3.229,-35.618 -8.416,-44.451 0.271,-0.342 15.321,-12.135 15.321,-12.135 12.681,-12.166 34.319,-30.305 48.758,-40.196 -0.021,0.062 -8.871,23.5 -3.738,42.184 2.791,10.164 14.719,47.636 15.679,48.23 6.168,3.818 27.206,-4.415 31.46,-5.012 3.967,-0.558 7.991,-1.643 11.989,-0.697 4.514,1.067 6.807,4.771 7.141,9.207 0.174,2.31 -1.641,4.252 -2.012,6.488 -0.291,1.747 0.389,4.923 1.587,6.167 0.168,0.117 6.203,4.384 8.218,5.451 1.42,4.886 -2.57,6.556 -2.57,6.556 0,0 3.627,2.424 4.243,3.598 0.717,1.367 0.514,3.032 0.858,4.498 0.078,0.334 -1.557,1.688 -1.818,1.957 -2.283,2.349 -2.437,6.529 -0.053,9.38 0.92,1.099 2.663,1.779 4.217,2.225 8.724,2.501 7.197,9.777 7.197,9.777" /></g><g
           transform="translate(330.4714,161.2524)"
           id="g64"><path
             id="path66"
             style="fill:#ffffff;fill-opacity:1;fill-rule:nonzero;stroke:none"
             d="m 0,0 h -6.487 l -10.47,18.208 h -0.148 c 0.208,-3.216 0.313,-5.509 0.313,-6.881 V 0 h -4.561 v 24.069 h 6.437 L -4.462,6.042 h 0.116 c -0.165,3.128 -0.247,5.34 -0.247,6.635 V 24.069 H 0 Z" /></g><g
           transform="translate(350.3919,161.2524)"
           id="g68"><path
             id="path70"
             style="fill:#ffffff;fill-opacity:1;fill-rule:nonzero;stroke:none"
             d="M 0,0 H -13.862 V 24.069 H 0 v -4.181 h -8.758 v -5.285 h 8.149 V 10.421 H -8.758 V 4.215 l 8.758,0 z" /></g><g
           transform="translate(376.766,161.2524)"
           id="g72"><path
             id="path74"
             style="fill:#ffffff;fill-opacity:1;fill-rule:nonzero;stroke:none"
             d="m 0,0 h -6.487 l -10.47,18.208 h -0.148 c 0.208,-3.216 0.313,-5.509 0.313,-6.881 V 0 h -4.561 v 24.069 h 6.437 L -4.462,6.042 h 0.116 c -0.165,3.128 -0.247,5.34 -0.247,6.635 V 24.069 H 0 Z" /></g><g
           transform="translate(391.9615,174.7687)"
           id="g76"><path
             id="path78"
             style="fill:#ffffff;fill-opacity:1;fill-rule:nonzero;stroke:none"
             d="m 0,0 h 9.549 v -12.479 c -1.548,-0.505 -3.005,-0.859 -4.371,-1.062 -1.367,-0.203 -2.763,-0.305 -4.19,-0.305 -3.633,0 -6.407,1.068 -8.322,3.203 -1.916,2.134 -2.873,5.199 -2.873,9.194 0,3.886 1.111,6.915 3.334,9.088 2.222,2.173 5.304,3.26 9.244,3.26 2.469,0 4.851,-0.494 7.145,-1.482 L 7.82,5.334 C 6.064,6.212 4.237,6.651 2.338,6.651 0.132,6.651 -1.635,5.91 -2.963,4.429 -4.291,2.947 -4.955,0.955 -4.955,-1.548 c 0,-2.612 0.535,-4.606 1.605,-5.984 1.07,-1.377 2.626,-2.066 4.667,-2.066 1.065,0 2.146,0.11 3.243,0.329 v 5.022 H 0 Z" /></g><g
           transform="translate(301.2755,171.3908)"
           id="g80"><path
             id="path82"
             style="fill:#ffffff;fill-opacity:1;fill-rule:nonzero;stroke:none"
             d="m 0,0 h -25.402 v 0.558 l 7.497,7.059 c 4.998,4.572 8.488,8.095 10.468,10.567 1.981,2.473 3.443,4.885 4.387,7.238 0.943,2.353 1.415,4.872 1.415,7.557 0,3.084 -0.771,5.822 -2.312,8.215 -1.543,2.392 -3.709,4.253 -6.501,5.583 -2.791,1.329 -6.008,1.993 -9.65,1.993 -2.765,0 -5.264,-0.272 -7.497,-0.817 -2.233,-0.545 -4.294,-1.323 -6.181,-2.333 -1.888,-1.01 -4.267,-2.738 -7.138,-5.184 l 6.699,-7.935 c 2.313,1.913 4.533,3.389 6.66,4.426 2.127,1.036 4.32,1.555 6.58,1.555 2.153,0 3.874,-0.572 5.164,-1.715 1.289,-1.143 1.934,-2.885 1.934,-5.224 0,-1.568 -0.293,-3.084 -0.878,-4.546 -0.584,-1.462 -1.541,-3.05 -2.871,-4.765 C -18.955,20.517 -21.787,17.44 -26.12,13 L -40.755,-1.794 v -0.043 c 1.548,-1.868 10.205,-8.531 10.205,-8.531 H 0 Z" /></g></g></g></g></svg>